<?xml version="1.0" standalone="no"?>
<!DOCTYPE svg PUBLIC "-//W3C//DTD SVG 1.1//EN" "http://www.w3.org/Graphics/SVG/1.1/DTD/svg11.dtd">
<svg width="640" height="480" version="1.1" xmlns="http://www.w3.org/2000/svg">
<line x1="377" y1="120" x2="399" y2="190" style="stroke:rgb(256,0,0);stroke-width:1" />
<line x1="382" y1="123" x2="403" y2="115" style="stroke:rgb(256,0,0);stroke-width:1" />
<line x1="403" y1="115" x2="415" y2="129" style="stroke:rgb(256,0,0);stroke-width:1" />
<line x1="415" y1="129" x2="420" y2="144" style="stroke:rgb(256,0,0);stroke-width:1" />
<line x1="421" y1="144" x2="412" y2="171" style="stroke:rgb(256,0,0);stroke-width:1" />
<line x1="399" y1="189" x2="413" y2="171" style="stroke:rgb(256,0,0);stroke-width:1" />
<line x1="431" y1="170" x2="436" y2="103" style="stroke:rgb(256,0,0);stroke-width:1" />
<line x1="438" y1="129" x2="467" y2="155" style="stroke:rgb(256,0,0);stroke-width:1" />
<line x1="437" y1="148" x2="450" y2="141" style="stroke:rgb(256,0,0);stroke-width:1" />
<line x1="468" y1="104" x2="496" y2="151" style="stroke:rgb(256,0,0);stroke-width:1" />
<line x1="496" y1="151" x2="506" y2="138" style="stroke:rgb(256,0,0);stroke-width:1" />
<line x1="505" y1="89" x2="527" y2="136" style="stroke:rgb(256,0,0);stroke-width:1" />
<line x1="527" y1="136" x2="542" y2="122" style="stroke:rgb(256,0,0);stroke-width:1" />
<line x1="546" y1="124" x2="550" y2="75" style="stroke:rgb(256,0,0);stroke-width:1" />
<line x1="550" y1="98" x2="565" y2="119" style="stroke:rgb(256,0,0);stroke-width:1" />
<line x1="552" y1="109" x2="560" y2="107" style="stroke:rgb(256,0,0);stroke-width:1" />
<line x1="599" y1="71" x2="585" y2="71" style="stroke:rgb(256,0,0);stroke-width:1" />
<line x1="592" y1="87" x2="570" y2="88" style="stroke:rgb(256,0,0);stroke-width:1" />
<line x1="570" y1="88" x2="573" y2="101" style="stroke:rgb(256,0,0);stroke-width:1" />
<line x1="574" y1="94" x2="579" y2="99" style="stroke:rgb(256,0,0);stroke-width:1" />
<line x1="579" y1="99" x2="574" y2="107" style="stroke:rgb(256,0,0);stroke-width:1" />
<rect x="44" y="244" width="286" height="235" style="fill:none;stroke-width:1;stroke:rgb(256,0,0)" />
<line x1="42" y1="245" x2="185" y2="150" style="stroke:rgb(256,0,0);stroke-width:1" />
<line x1="327" y1="242" x2="188" y2="148" style="stroke:rgb(256,0,0);stroke-width:1" />
<rect x="208" y="362" width="67" height="116" style="fill:rgb(0,0,0);stroke-width:1;stroke:rgb(0,0,0)" />
<circle cx="593" cy="395" r="11" style="fill:rgb(256,256,256);stroke-width:1;stroke:rgb(256,256,256)" />
<line x1="246" y1="423" x2="254" y2="433" style="stroke:rgb(256,256,256);stroke-width:1" />
<line x1="83" y1="348" x2="113" y2="313" style="stroke:rgb(0,0,256);stroke-width:1" />
<line x1="113" y1="313" x2="137" y2="349" style="stroke:rgb(0,0,256);stroke-width:1" />
<line x1="85" y1="345" x2="145" y2="348" style="stroke:rgb(0,0,256);stroke-width:1" />
<rect x="411" y="364" width="36" height="116" style="fill:rgb(0,256,0);stroke-width:1;stroke:rgb(0,256,0)" />
<circle cx="399" cy="362" r="16" style="fill:rgb(256,0,0);stroke-width:1;stroke:rgb(256,0,0)" />
<circle cx="404" cy="341" r="16" style="fill:rgb(0,0,256);stroke-width:1;stroke:rgb(0,0,256)" />
<circle cx="424" cy="327" r="17" style="fill:rgb(256,256,0);stroke-width:1;stroke:rgb(256,256,0)" />
<circle cx="447" cy="339" r="19" style="fill:rgb(0,256,256);stroke-width:1;stroke:rgb(0,256,256)" />
<circle cx="467" cy="360" r="20" style="fill:rgb(256,0,256);stroke-width:1;stroke:rgb(256,0,256)" />
</svg>